<svg width="145" height="73" viewBox="0 0 145 73" fill="none" xmlns="http://www.w3.org/2000/svg">
<path d="M0.318088 56.2346C0.318088 56.2346 58.9903 113.172 110.566 123.956C128.066 127.618 141.932 126.561 152.614 123.557C174.888 117.301 182.278 89.8707 166.133 73.4075C158.39 65.5118 146.912 57.7203 129.907 52.2141C79.7938 35.9929 0.318088 56.2346 0.318088 56.2346Z" fill="#2F8C91"/>
<path d="M135.346 90.4241C131.829 89.4983 128.316 88.5687 124.798 87.643C121.813 74.6651 118.833 61.6834 115.843 48.7001C115.422 48.6208 115.001 48.5415 114.579 48.4716C117.555 61.4145 120.531 74.3573 123.508 87.3002C120.187 86.424 116.856 85.5463 113.535 84.6701C110.48 72.2995 107.98 59.8038 106.048 47.2231C105.646 47.1802 105.245 47.128 104.842 47.0851C106.751 59.5998 109.219 72.0188 112.235 84.3259C109.04 83.4835 105.845 82.6411 102.65 81.7988C100.272 69.9637 97.898 58.134 95.5198 46.299C95.1146 46.2748 94.7094 46.2507 94.2987 46.2304C96.6574 57.9715 99.0146 69.7219 101.373 81.4629C98.0238 80.5823 94.6756 79.6923 91.3261 78.8117C88.1485 67.96 85.4183 56.9856 83.1556 45.9156C82.7515 45.9156 82.3529 45.9116 81.9529 45.917C84.1855 56.8673 86.8705 67.7246 89.9974 78.4631C86.5501 77.553 83.1029 76.643 79.6502 75.7369C76.9309 65.9523 74.6371 56.0608 72.7834 46.0934C72.3874 46.1042 71.99 46.1243 71.594 46.1351C73.4189 55.9735 75.665 65.7331 78.331 75.3898C75.5243 74.6504 72.7136 73.9055 69.9069 73.1661C67.0898 64.4251 64.675 55.5688 62.6733 46.623C62.2744 46.6525 61.881 46.678 61.4822 46.7075C63.443 55.5082 65.8034 64.2123 68.5552 72.8092C65.131 71.9075 61.7068 71.0058 58.2826 70.1041C55.1567 62.8579 52.8307 55.3184 51.3307 47.5996C50.9399 47.6399 50.5491 47.6803 50.1528 47.7245C51.6122 55.2646 53.8582 62.6289 56.8507 69.73C55.6863 69.4211 54.5164 69.1161 53.3519 68.8072C53.1995 68.6591 52.9825 68.5826 52.7439 68.6464C51.897 68.4247 51.0556 68.1992 50.2087 67.9775C47.0742 61.8271 45.0936 55.2031 44.346 48.3812C43.9537 48.4308 43.5669 48.4766 43.1747 48.5263C43.9106 55.1404 45.7705 61.5686 48.6981 67.5769C46.1304 66.8983 43.5666 66.2251 40.9988 65.5465C38.8449 60.3281 37.0908 54.9797 35.7432 49.5216C35.3495 49.5806 34.9612 49.6357 34.5675 49.6948C35.8666 54.9634 37.5462 60.1326 39.586 65.1753C37.2 64.5487 34.8155 63.9127 32.4296 63.2861C31.5594 59.6214 30.6879 55.966 29.8178 52.3013C29.6722 51.6992 29.5336 51.0838 29.388 50.4817C28.9984 50.5462 28.6142 50.6067 28.23 50.6672C28.4463 51.5676 28.6436 52.4651 28.8518 53.3547C29.6092 56.5518 30.372 59.7449 31.1294 62.9419C29.1085 62.4099 27.0972 61.8794 25.0763 61.3474C23.7333 58.2229 22.52 55.0466 21.4555 51.8213C21.0603 51.8897 20.6692 51.9635 20.2836 52.0334C21.2779 55.0514 22.395 58.0309 23.6364 60.9625C21.279 60.3402 18.9256 59.7234 16.5736 59.0972C15.8065 57.1298 15.1307 55.1382 14.5573 53.1144C14.1607 53.1922 13.7736 53.2714 13.392 53.3467C13.9102 55.1608 14.5033 56.9624 15.1743 58.733C13.752 58.3603 12.3351 57.9837 10.9127 57.6111C10.4539 56.4529 9.98954 55.2987 9.53472 54.1459C9.13265 54.2276 8.74961 54.3123 8.37204 54.3929C8.75115 55.3424 9.13027 56.2919 9.50535 57.236C7.38133 56.6785 5.26278 56.1171 3.13474 55.5542C1.30653 55.9812 0.317911 56.236 0.317911 56.236C0.317911 56.236 1.02857 56.93 2.36551 58.1709C4.73244 58.7946 7.09938 59.4183 9.46631 60.042C8.32889 60.5037 7.23697 61.0491 6.18392 61.658C6.48352 61.9245 6.78715 62.1965 7.09885 62.4793C8.46753 61.7179 9.9114 61.0687 11.4316 60.5558C13.0833 60.9878 14.7336 61.4291 16.3853 61.861C14.1678 62.7598 12.0589 63.8382 10.0586 65.0962C10.3581 65.3627 10.6632 65.6254 10.9764 65.8988C13.0969 64.5875 15.3572 63.4749 17.7242 62.5849C17.8839 62.5281 17.9828 62.4236 18.0451 62.3038C21.0852 63.108 24.1212 63.9067 27.1613 64.7108C23.4895 66.5159 19.8899 68.4518 16.36 70.5039C16.6746 70.768 16.9932 71.0375 17.3173 71.303C21.0919 69.1162 24.9524 67.0672 28.8877 65.1639C31.6197 65.8822 34.3558 66.6059 37.0878 67.3242C32.0827 69.8818 27.1404 72.5687 22.2733 75.3679C22.5974 75.6334 22.9229 75.8896 23.2565 76.1566C28.3574 73.2307 33.5361 70.4316 38.7911 67.7689C42.1407 68.6496 45.4943 69.5356 48.8438 70.4162C42.0986 73.5868 35.4845 77.0124 29.0082 80.6796C29.3433 80.9372 29.6783 81.1949 30.0174 81.4579C36.7369 77.6654 43.6105 74.1361 50.6177 70.8766C52.8259 71.4566 55.0381 72.0421 57.2463 72.6221C50.4819 77.3036 43.7176 81.985 36.9533 86.6665C37.2858 86.9094 37.6182 87.1522 37.9547 87.4005C44.8819 82.6101 51.8051 77.8142 58.7378 73.0198C63.0224 74.15 67.307 75.2802 71.5917 76.4104C62.0357 80.9488 52.7417 85.997 43.7522 91.5329C44.1036 91.7787 44.4511 92.0191 44.8026 92.265C54.019 86.6155 63.5464 81.4739 73.3506 76.8732C77.2756 77.9049 81.1951 78.9404 85.1242 79.9775C75.3272 86.4859 65.5248 92.9982 55.7279 99.5067C56.0917 99.7352 56.4501 99.9677 56.81 100.191C66.7534 93.5853 76.6968 86.9797 86.6362 80.3687C88.1331 80.7624 89.6301 81.1562 91.1216 81.5538C92.9417 82.0309 94.7602 82.5174 96.5802 82.9944C86.0016 90.3404 75.4175 97.6903 64.8389 105.036C65.2097 105.252 65.5845 105.472 65.9608 105.684C76.6599 98.2507 87.3686 90.8194 98.0677 83.3867C100.874 84.1261 103.681 84.8655 106.488 85.6049C96.4057 94.1484 86.3236 102.692 76.2456 111.241C76.6248 111.433 77.004 111.626 77.3886 111.815C87.494 103.246 97.6035 94.6828 107.709 86.1142C107.765 86.0654 107.802 86.0136 107.839 85.9619C111.853 87.0215 115.862 88.0756 119.875 89.1352C108.702 98.0902 97.5255 107.04 86.3527 115.995C86.7593 116.168 87.1699 116.346 87.5764 116.519C98.8149 107.516 110.053 98.5141 121.288 89.5064C124.295 90.3007 127.299 91.0896 130.306 91.884C120.478 101.717 110.648 111.559 100.82 121.392C101.247 121.525 101.67 121.653 102.099 121.776C111.94 111.926 121.79 102.077 131.631 92.2272C134.83 93.075 138.03 93.9134 141.229 94.7612C132.848 105.215 123.878 115.195 114.364 124.659C114.848 124.743 115.322 124.826 115.797 124.899C125.244 115.458 134.151 105.507 142.47 95.0818C147.662 96.4479 152.853 97.8232 158.046 99.1893C150.566 108.57 142.636 117.584 134.297 126.219C134.874 126.203 135.437 126.18 136.006 126.152C144.134 117.686 151.861 108.851 159.158 99.677C159.201 99.6213 159.234 99.5641 159.254 99.5001C161.439 100.072 163.623 100.653 165.808 101.225C160.172 108.969 154.532 116.707 148.902 124.448C149.496 124.319 150.083 124.179 150.659 124.038C156.116 116.54 161.573 109.041 167.033 101.548C169.194 102.12 171.36 102.689 173.517 103.256C173.782 102.392 174.006 101.507 174.196 100.621C173.598 100.462 172.999 100.302 172.401 100.143C170.929 91.8968 169.457 83.6506 167.989 75.4098C167.518 74.8342 167.015 74.2729 166.493 73.718C168.041 82.4167 169.594 91.1114 171.147 99.8155C169.215 99.3021 167.283 98.7981 165.352 98.2847C163.429 88.0097 161.496 77.7332 159.573 67.4581C159.118 67.0957 158.648 66.7358 158.172 66.3798C160.144 76.902 162.121 87.4296 164.088 97.9557C161.09 97.1629 158.096 96.3754 155.098 95.5825C153.127 83.8869 151.15 72.1951 149.178 60.4995C148.744 60.2552 148.309 60.011 147.86 59.7692C149.855 71.5978 151.855 83.4225 153.845 95.2457C151.23 94.5597 148.616 93.8644 146.001 93.1785C145.926 93.1574 145.856 93.1417 145.781 93.1206C143.048 80.7758 140.972 68.3071 139.551 55.7574C139.141 55.5791 138.725 55.4048 138.303 55.2344C139.71 67.8442 141.781 80.3744 144.5 92.7793C144.163 92.6891 143.827 92.5989 143.494 92.5141C143.426 92.4797 143.352 92.4586 143.284 92.4577C141.095 91.8806 138.905 91.3034 136.712 90.7209C132.806 77.7161 129.539 64.5416 126.906 51.2349C126.482 51.1167 126.058 50.9892 125.628 50.8749C128.213 64.2413 131.47 77.4143 135.346 90.4241Z" fill="#286F7F"/>
<path d="M38.8035 19.4574C38.8035 19.4574 69.5996 94.766 112.545 125.004C127.116 135.266 140.262 139.772 151.274 141.238C174.232 144.301 192.1 122.096 183.947 100.644C180.038 90.3565 172.66 78.6894 159.289 66.9332C119.883 32.2936 38.8035 19.4574 38.8035 19.4574Z" fill="#1A4143"/>
<path d="M148.833 104.077C145.981 101.84 143.135 99.6018 140.283 97.3652C142.791 84.3005 145.306 71.2343 147.813 58.1631C147.459 57.9242 147.105 57.6854 146.746 57.4546C144.243 70.4836 141.74 83.5127 139.238 96.5418C136.546 94.4282 133.846 92.3095 131.154 90.196C133.353 77.66 136.112 65.2284 139.426 52.9434C139.074 52.7453 138.728 52.5392 138.376 52.3411C135.067 64.5563 132.31 76.905 130.1 89.3674C127.511 87.3347 124.921 85.3019 122.331 83.2691C124.934 71.4908 127.539 59.719 130.143 47.9407C129.781 47.7586 129.419 47.5765 129.05 47.3958C126.467 59.0803 123.879 70.7729 121.295 82.4574C118.579 80.3285 115.868 78.1916 113.152 76.0628C114.624 64.8695 116.557 53.7404 118.957 42.7085C118.586 42.5489 118.222 42.3879 117.853 42.2349C115.474 53.1454 113.547 64.1493 112.074 75.2189C109.28 73.0245 106.486 70.8302 103.685 68.6372C105.147 58.6022 107.042 48.6372 109.371 38.7766C109.004 38.6301 108.631 38.4917 108.264 38.3452C105.96 48.0764 104.074 57.9017 102.616 67.7985C100.34 66.0133 98.0632 64.2215 95.7878 62.4363C96.7377 53.3184 98.1033 44.2539 99.884 35.2703C99.5062 35.1399 99.1351 35.008 98.7573 34.8776C96.9978 43.712 95.6438 52.6157 94.6922 61.5757C91.916 59.3981 89.1398 57.2204 86.3635 55.0428C86.4259 47.1722 87.3406 39.3486 89.0854 31.687C88.7107 31.5696 88.3359 31.4523 87.9545 31.3364C86.2448 38.8183 85.3275 46.4498 85.2014 54.1349C84.2583 53.3923 83.3085 52.6511 82.3653 51.9085C82.2854 51.7127 82.1173 51.5569 81.8726 51.5211C81.1854 50.9838 80.5048 50.4451 79.8176 49.9078C79.4292 43.0373 80.2906 36.1886 82.3629 29.6454C81.983 29.5361 81.6097 29.4253 81.2299 29.3159C79.2308 35.6642 78.338 42.2858 78.5941 48.9445C76.5132 47.3093 74.4338 45.6806 72.353 44.0454C72.4871 38.4157 73.0405 32.8247 74.011 27.2937C73.6261 27.1924 73.2477 27.0896 72.8627 26.9882C71.9242 32.3265 71.3749 37.7239 71.2071 43.1477C69.272 41.6318 67.342 40.108 65.4068 38.5922C66.0904 34.8922 66.7688 31.2003 67.4523 27.5003C67.5622 26.8914 67.6839 26.2731 67.7938 25.6642C67.4103 25.5694 67.0335 25.4731 66.6566 25.3769C66.491 26.287 66.3091 27.1868 66.1404 28.0838C65.5426 31.3109 64.9513 34.5365 64.3534 37.7636C62.7149 36.4786 61.0846 35.1987 59.446 33.9136C59.4774 30.5218 59.6487 27.1337 59.9762 23.7595C59.5861 23.6661 59.1975 23.5794 58.8156 23.4911C58.5074 26.6478 58.3275 29.8176 58.2809 32.9926C56.3702 31.4921 54.461 29.9981 52.5568 28.4961C52.6486 26.3913 52.834 24.3005 53.1262 22.2206C52.731 22.1352 52.3439 22.055 51.9635 21.9733C51.7054 23.8393 51.521 25.7236 51.4206 27.61C50.2667 26.7072 49.1193 25.803 47.9653 24.9002C48.0127 23.6583 48.0535 22.4178 48.1024 21.1825C47.7005 21.0986 47.315 21.0249 46.936 20.9497C46.8999 21.969 46.8638 22.9883 46.8261 24.001C45.1033 22.6519 43.3871 21.3014 41.6628 19.9457C39.8132 19.6151 38.8034 19.4581 38.8034 19.4581C38.8034 19.4581 39.1747 20.3743 39.8993 22.0386C41.8181 23.5443 43.737 25.0499 45.6559 26.5555C44.4259 26.5294 43.2039 26.5978 41.9918 26.7398C42.1589 27.1022 42.3274 27.4711 42.499 27.8532C44.0622 27.6962 45.649 27.6716 47.2507 27.802C48.5911 28.8497 49.9264 29.9054 51.2667 30.9531C48.8694 30.9008 46.4991 31.0559 44.1557 31.4184C44.3227 31.7808 44.4964 32.1418 44.6731 32.5158C47.1483 32.152 49.6712 32.0253 52.2022 32.1446C52.3716 32.1556 52.5046 32.0989 52.6101 32.0138C55.0735 33.9505 57.5353 35.8806 59.9986 37.8172C55.901 38.0209 51.8167 38.3729 47.7493 38.8589C47.9311 39.2249 48.1144 39.5975 48.3043 39.9687C52.6506 39.456 57.0199 39.1034 61.3989 38.9137C63.6144 40.6501 65.8314 42.3931 68.0469 44.1296C62.4221 44.4961 56.8026 45.0059 51.2066 45.6481C51.3966 46.0193 51.5916 46.3824 51.7896 46.7587C57.6513 46.0926 63.5329 45.5734 69.4295 45.2093C72.1458 47.3382 74.8636 49.4736 77.5798 51.6024C70.1111 51.8435 62.6595 52.3698 55.2367 53.1718C55.4398 53.54 55.643 53.9083 55.8476 54.2831C63.5443 53.4623 71.2758 52.9435 79.0208 52.7244C80.8117 54.1274 82.6041 55.5369 84.395 56.9399C76.2979 58.5571 68.2008 60.1744 60.1037 61.7916C60.3104 62.1453 60.5172 62.499 60.7254 62.8593C69.016 61.2065 77.305 59.5471 85.6022 57.8929C89.0753 60.6195 92.5484 63.3461 96.0214 66.0727C85.4216 66.4568 74.8559 67.4114 64.3723 68.9327C64.5953 69.2966 64.8168 69.6539 65.0398 70.0178C75.7774 68.4821 86.5949 67.5343 97.4476 67.191C100.631 69.6854 103.807 72.1812 106.992 74.6821C95.3743 76.7754 83.7504 78.8701 72.1331 80.9634C72.3744 81.3164 72.6091 81.6708 72.849 82.0173C84.6399 79.8928 96.4309 77.7683 108.22 75.6373C109.434 76.5889 110.648 77.5405 111.855 78.4935C113.332 79.649 114.803 80.8124 116.28 81.9678C103.607 84.5196 90.9273 87.0729 78.2544 89.6247C78.5075 89.9682 78.7621 90.3183 79.0218 90.6604C91.8403 88.0767 104.667 85.498 117.486 82.9143C119.761 84.6995 122.036 86.4848 124.312 88.27C111.61 92.1146 98.9086 95.9592 86.2085 99.8104C86.4784 100.137 86.7484 100.463 87.0249 100.787C99.7581 96.9288 112.493 93.0769 125.226 89.2185C125.297 89.196 125.352 89.1633 125.407 89.1305C128.66 91.6853 131.911 94.2336 135.164 96.7883C121.295 100.579 107.425 104.364 93.5571 108.154C93.8601 108.473 94.1646 108.799 94.4677 109.117C108.415 105.309 122.363 101.501 136.31 97.686C138.747 99.6009 141.183 101.509 143.62 103.424C130.63 108.55 117.635 113.683 104.644 118.809C104.983 119.099 105.319 119.383 105.663 119.666C118.671 114.529 131.688 109.398 144.697 104.261C147.288 106.301 149.884 108.332 152.476 110.371C140.562 116.637 128.3 122.236 115.747 127.149C116.157 127.416 116.558 127.679 116.965 127.934C129.446 123.016 141.639 117.419 153.484 111.155C157.694 114.456 161.9 117.765 166.11 121.066C155.457 126.704 144.539 131.829 133.399 136.446C133.935 136.659 134.461 136.86 134.994 137.06C145.872 132.514 156.531 127.473 166.934 121.952C166.995 121.917 167.049 121.878 167.093 121.827C168.866 123.213 170.634 124.608 172.407 125.994C164.107 130.862 155.805 135.723 147.512 140.589C148.109 140.706 148.703 140.81 149.289 140.908C157.326 136.195 165.362 131.481 173.4 126.774C175.151 128.151 176.908 129.527 178.656 130.898C179.249 130.211 179.812 129.489 180.345 128.753C179.861 128.371 179.376 127.988 178.891 127.606C180.875 119.473 182.859 111.339 184.844 103.212C184.645 102.499 184.411 101.786 184.156 101.072C182.059 109.65 179.969 118.226 177.874 126.811C176.31 125.578 174.741 124.354 173.177 123.121C175.567 112.951 177.949 102.776 180.34 92.6066C180.069 92.095 179.783 91.5798 179.491 91.0659C177.046 101.482 174.602 111.904 172.151 122.321C169.722 120.411 167.294 118.508 164.865 116.599C167.785 105.108 170.699 93.6199 173.619 82.1298C173.319 81.7346 173.019 81.3394 172.705 80.9405C169.752 92.5615 166.806 104.181 163.852 115.795C161.73 114.135 159.614 112.466 157.492 110.805C157.432 110.757 157.374 110.714 157.314 110.666C159.798 98.2804 162.935 86.041 166.706 73.9861C166.401 73.6608 166.09 73.3368 165.772 73.0143C161.965 85.1187 158.799 97.4126 156.277 109.847C156.005 109.632 155.733 109.416 155.462 109.207C155.414 109.149 155.354 109.1 155.292 109.073C153.517 107.68 151.742 106.287 149.966 104.888C151.641 91.4347 153.971 78.0788 156.936 64.8521C156.594 64.5762 156.257 64.2923 155.909 64.0178C152.876 77.2801 150.538 90.6308 148.833 104.077Z" fill="#2F8C91"/>
</svg>
